# xmcd
#
# Track frame offsets:
#	150
#	19076
#	38567
#	60283
#	75344
#	92681
#	119754
#	137965
#	164957
#	186712
#	206220
#	226048
#	243832
#	263232
#
# Disc length: 3752 seconds
#
# Revision: 0
# Processed by: cddbd v1.5.2PL0 Copyright (c) Steve Scherf et al.
# Submitted via: EasyCDDAExtractor 8.1.2.3
#
DISCID=c10ea60e
DTITLE=Bakar - Rose du béton
DYEAR=2007
DGENRE=Rap
TTITLE0=Il aura fallu ça (préface)
TTITLE1=Rose du béton ft Mélissa
TTITLE2=N'incite pas ft Kery James
TTITLE3=Djezairi
TTITLE4=Pour les quartiers ft J-Mi Sissoko
TTITLE5=Mal être
TTITLE6=Les gens comme eux
TTITLE7=Conscience d'Arabe ft Taïro
TTITLE8=Davant ma fenêtre ft Diam's
TTITLE9=Le bloc
TTITLE10=Amitié brisée ft China
TTITLE11=L'envolée
TTITLE12=Mémoires d'immigré (nouvelle version)
TTITLE13=Les gens comme eux remix ft Médine and Sinik
EXTD=
EXTT0=
EXTT1=
EXTT2=
EXTT3=
EXTT4=
EXTT5=
EXTT6=
EXTT7=
EXTT8=
EXTT9=
EXTT10=
EXTT11=
EXTT12=
EXTT13=
PLAYORDER=
